<?xml version="1.0" encoding="iso-8859-1"?>
<!-- Generator: Adobe Illustrator 19.0.0, SVG Export Plug-In . SVG Version: 6.00 Build 0)  -->
<svg version="1.1" id="Capa_1" xmlns="http://www.w3.org/2000/svg" xmlns:xlink="http://www.w3.org/1999/xlink" x="0px" y="0px"
	 viewBox="0 0 469.333 469.333" style="enable-background:new 0 0 469.333 469.333;" xml:space="preserve">
<g>
	<g>
		<g>
			<path d="M466.208,451.125L316.681,301.587c28.503-32.043,45.986-74.095,45.986-120.254C362.667,81.344,281.312,0,181.333,0
				S0,81.344,0,181.333s81.354,181.333,181.333,181.333c46.161,0,88.22-17.486,120.266-45.995l149.526,149.536
				c2.083,2.083,4.813,3.125,7.542,3.125c2.729,0,5.458-1.042,7.542-3.125C470.375,462.042,470.375,455.292,466.208,451.125z
				 M181.333,341.333c-88.229,0-160-71.771-160-160s71.771-160,160-160s160,71.771,160,160S269.562,341.333,181.333,341.333z"/>
			<path d="M224,96c-16,0-31.021,5.896-42.667,16.479C169.687,101.896,154.667,96,138.667,96c-35.292,0-64,28.708-64,64
				c0,17.094,6.666,33.156,18.792,45.281l80.375,79.625c2.063,2.063,4.792,3.094,7.5,3.094c2.708,0,5.438-1.031,7.5-3.094
				l80.417-79.656C281.333,193.156,288,177.094,288,160C288,124.708,259.292,96,224,96z M254.208,190.135l-72.875,72.187
				L108.5,190.167C100.437,182.104,96,171.396,96,160c0-23.531,19.146-42.667,42.667-42.667c13.479,0,25.896,6.313,34.104,17.333
				c4.042,5.396,13.083,5.396,17.125,0c8.208-11.021,20.625-17.333,34.104-17.333c23.521,0,42.667,19.135,42.667,42.667
				C266.667,171.396,262.229,182.104,254.208,190.135z"/>
		</g>
	</g>
</g>
<g>
</g>
<g>
</g>
<g>
</g>
<g>
</g>
<g>
</g>
<g>
</g>
<g>
</g>
<g>
</g>
<g>
</g>
<g>
</g>
<g>
</g>
<g>
</g>
<g>
</g>
<g>
</g>
<g>
</g>
</svg>
